<svg xmlns="http://www.w3.org/2000/svg" viewBox="0 0 24 30" fill="none" x="0px" y="0px"><path fill-rule="evenodd" clip-rule="evenodd" d="M5.69292 18.3071C5.30239 17.9166 5.30239 17.2834 5.69292 16.8929L16.8929 5.69292C17.2834 5.30239 17.9166 5.30239 18.3071 5.69292C18.6977 6.08344 18.6977 6.71661 18.3071 7.10713L7.10713 18.3071C6.71661 18.6977 6.08344 18.6977 5.69292 18.3071Z" fill="black"/><path fill-rule="evenodd" clip-rule="evenodd" d="M5.69292 5.69292C6.08344 5.30239 6.71661 5.30239 7.10713 5.69292L18.3071 16.8929C18.6977 17.2834 18.6977 17.9166 18.3071 18.3071C17.9166 18.6977 17.2834 18.6977 16.8929 18.3071L5.69292 7.10713C5.30239 6.71661 5.30239 6.08344 5.69292 5.69292Z" fill="black"/></svg>